<mxfile host="app.diagrams.net" modified="2024-02-21T14:04:47.351Z" agent="Mozilla/5.0 (X11; Linux x86_64; rv:122.0) Gecko/20100101 Firefox/122.0" version="23.1.5" etag="HhLLukQmlm0M9NMDEzUe" type="github">
  <diagram name="Page-1" id="YFx5BGwUqNlJ0O1xPItH">
    <mxGraphModel>
      <root>
        <mxCell id="0" />
        <mxCell id="1" parent="0" />
      </root>
    </mxGraphModel>
  </diagram>
</mxfile>
